# xmcd
# 
# Track frame offsets:
#     150
#     23250
#     40232
#     57102
#     70710
#     93980
#     111380
#     123140
#     149075
#     161460
#     178042
#     212880
# 
# Disc length: 4440
# 
# Revision: 18
# Processed by: cddbd v1.5.2PL0 Copyright (c) Steve Scherf et al.
# Submitted via: fre:ac v1.0.31
# 
DISCID=a111560c
DTITLE=椎名林檎 - 加爾基 精液 栗ノ花
DYEAR=2003
DGENRE=JPop
TTITLE0=宗教
TTITLE1=ドツペルゲンガー
TTITLE2=迷彩
TTITLE3=おだいじに
TTITLE4=やつつけ仕事
TTITLE5=茎
TTITLE6=とりこし苦労
TTITLE7=おこのみで
TTITLE8=意識
TTITLE9=ポルターガイスト
TTITLE10=葬列
TTITLE11=12
EXTD=YEAR: 2003
EXTT0=
EXTT1=
EXTT2=
EXTT3=
EXTT4=
EXTT5=
EXTT6=
EXTT7=
EXTT8=
EXTT9=
EXTT10=
EXTT11=
PLAYORDER=
